<?xml version="1.0" encoding="UTF-8"?>
<svg width="32" height="32" viewBox="0 0 32 32" fill="none" xmlns="http://www.w3.org/2000/svg">
  <!-- Coin background -->
  <circle cx="16" cy="16" r="15" fill="#F7931A"/>
  <!-- Coin border -->
  <circle cx="16" cy="16" r="14" stroke="white" stroke-width="0.5" stroke-opacity="0.2"/>
  <!-- Stylized O for Odinflip -->
  <path d="M16 7C11.0294 7 7 11.0294 7 16C7 20.9706 11.0294 25 16 25C20.9706 25 25 20.9706 25 16C25 11.0294 20.9706 7 16 7ZM16 22C12.6863 22 10 19.3137 10 16C10 12.6863 12.6863 10 16 10C19.3137 10 22 12.6863 22 16C22 19.3137 19.3137 22 16 22Z" fill="white"/>
</svg> 